<svg xmlns="http://www.w3.org/2000/svg" xmlns:xlink="http://www.w3.org/1999/xlink" width="500" zoomAndPan="magnify" viewBox="0 0 375 374.999991" height="500" preserveAspectRatio="xMidYMid meet" version="1.0"><defs><g/><clipPath id="id1"><path d="M 196 122 L 201 122 L 201 150.757812 L 196 150.757812 Z M 196 122 " clip-rule="nonzero"/></clipPath><clipPath id="id2">
<path d="M 174 122 L 179 122 L 179 150.757812 L 174 150.757812 Z M 174 122 " clip-rule="nonzero"/></clipPath><clipPath id="id3"><path d="M 152.324219 102.007812 L 222.824219 102.007812 L 222.824219 139 L 152.324219 139 Z M 152.324219 102.007812 " clip-rule="nonzero"/>
</clipPath><clipPath id="id4">
<path d="M 196 156 L 201 156 L 201 184.328125 L 196 184.328125 Z M 196 156 " clip-rule="nonzero"/></clipPath><clipPath id="id5"><path d="M 174 156 L 179 156 L 179 184.328125 L 174 184.328125 Z M 174 156 " clip-rule="nonzero"/></clipPath><clipPath id="id6"><path d="M 152.324219 135.578125 L 222.824219 135.578125 L 222.824219 172 L 152.324219 172 Z M 152.324219 135.578125 " clip-rule="nonzero"/></clipPath><clipPath id="id7"><path d="M 184.1875 175.789062 L 193.1875 175.789062 L 193.1875 184.789062 L 184.1875 184.789062 Z M 184.1875 175.789062 " clip-rule="nonzero"/></clipPath></defs><path fill="#004aad" d="M 163.292969 142.320312 C 163.292969 143.566406 164.308594 144.574219 165.558594 144.574219 C 166.808594 144.574219 167.824219 143.566406 167.824219 142.324219 L 167.839844 117.3125 L 163.3125 113.554688 L 163.292969 142.320312 " fill-opacity="1" fill-rule="nonzero"/><g clip-path="url(#id1)"><path fill="#004aad" d="M 196.308594 126.441406 L 196.324219 148.511719 C 196.324219 149.757812 197.339844 150.765625 198.589844 150.765625 C 199.839844 150.761719 200.855469 149.753906 200.855469 148.507812 L 200.835938 122.683594 L 196.308594 126.441406 " fill-opacity="1" fill-rule="nonzero"/></g><g clip-path="url(#id2)"><path fill="#004aad" d="M 174.296875 148.507812 C 174.296875 149.753906 175.308594 150.761719 176.558594 150.765625 L 176.5625 150.765625 C 177.8125 150.765625 178.824219 149.757812 178.824219 148.511719 L 178.84375 126.441406 L 174.316406 122.683594 L 174.296875 148.507812 " fill-opacity="1" fill-rule="nonzero"/></g><path fill="#004aad" d="M 207.3125 117.3125 L 207.328125 142.324219 C 207.328125 143.566406 208.34375 144.574219 209.59375 144.574219 C 210.84375 144.574219 211.859375 143.566406 211.855469 142.320312 L 211.835938 113.554688 L 207.3125 117.3125 " fill-opacity="1" fill-rule="nonzero"/><g clip-path="url(#id3)"><path fill="#004aad" d="M 221.695312 102.425781 C 221.003906 102.019531 220.148438 102.011719 219.445312 102.402344 L 187.574219 120.105469 L 155.703125 102.402344 C 155.003906 102.011719 154.144531 102.023438 153.453125 102.425781 C 152.761719 102.832031 152.335938 103.570312 152.335938 104.371094 L 152.347656 136.167969 C 152.347656 137.414062 153.359375 138.421875 154.609375 138.421875 L 154.613281 138.421875 C 155.863281 138.421875 156.875 137.410156 156.875 136.167969 L 156.867188 108.207031 L 186.46875 124.652344 C 187.15625 125.03125 187.992188 125.03125 188.679688 124.652344 L 218.28125 108.207031 L 218.28125 108.210938 L 218.285156 108.207031 L 218.277344 136.167969 C 218.273438 137.410156 219.289062 138.421875 220.539062 138.421875 C 221.164062 138.421875 221.730469 138.167969 222.140625 137.761719 C 222.550781 137.355469 222.804688 136.789062 222.804688 136.167969 L 222.816406 104.371094 C 222.816406 103.570312 222.390625 102.832031 221.695312 102.425781 " fill-opacity="1" fill-rule="nonzero"/></g><path fill="#5ce1e6" d="M 163.292969 175.886719 C 163.292969 177.132812 164.308594 178.140625 165.558594 178.144531 C 166.808594 178.144531 167.824219 177.132812 167.824219 175.890625 L 167.839844 150.878906 L 163.3125 147.125 L 163.292969 175.886719 " fill-opacity="1" fill-rule="nonzero"/><g clip-path="url(#id4)"><path fill="#5ce1e6" d="M 196.308594 160.007812 L 196.324219 182.082031 C 196.324219 183.324219 197.339844 184.332031 198.589844 184.332031 C 199.839844 184.332031 200.855469 183.324219 200.855469 182.078125 L 200.835938 156.253906 L 196.308594 160.007812 " fill-opacity="1" fill-rule="nonzero"/></g><g clip-path="url(#id5)"><path fill="#5ce1e6" d="M 174.296875 182.078125 C 174.296875 183.324219 175.308594 184.332031 176.558594 184.332031 L 176.5625 184.332031 C 177.8125 184.332031 178.824219 183.324219 178.824219 182.082031 L 178.84375 160.007812 L 174.316406 156.253906 L 174.296875 182.078125 " fill-opacity="1" fill-rule="nonzero"/></g><path fill="#5ce1e6" d="M 207.3125 150.878906 L 207.328125 175.890625 C 207.328125 177.132812 208.34375 178.144531 209.59375 178.144531 C 210.84375 178.140625 211.859375 177.132812 211.855469 175.886719 L 211.835938 147.125 L 207.3125 150.878906 " fill-opacity="1" fill-rule="nonzero"/><g clip-path="url(#id6)"><path fill="#5ce1e6" d="M 221.695312 135.996094 C 221.003906 135.589844 220.148438 135.582031 219.445312 135.96875 L 187.574219 153.671875 L 155.703125 135.96875 C 155.003906 135.582031 154.144531 135.589844 153.453125 135.996094 C 152.761719 136.398438 152.335938 137.140625 152.335938 137.9375 L 152.347656 169.734375 C 152.347656 170.980469 153.359375 171.988281 154.609375 171.988281 L 154.613281 171.988281 C 155.863281 171.988281 156.875 170.980469 156.875 169.734375 L 156.867188 141.777344 L 186.46875 158.21875 C 187.15625 158.601562 187.992188 158.601562 188.679688 158.21875 L 218.28125 141.777344 L 218.285156 141.777344 L 218.277344 169.734375 C 218.273438 170.980469 219.289062 171.988281 220.539062 171.988281 C 221.164062 171.988281 221.730469 171.734375 222.140625 171.328125 C 222.550781 170.921875 222.804688 170.359375 222.804688 169.734375 L 222.816406 137.9375 C 222.816406 137.140625 222.390625 136.398438 221.695312 135.996094 " fill-opacity="1" fill-rule="nonzero"/></g><g clip-path="url(#id7)"><path fill="#0652e9" d="M 188.6875 175.789062 C 186.203125 175.789062 184.1875 177.804688 184.1875 180.289062 C 184.1875 182.777344 186.203125 184.789062 188.6875 184.789062 C 191.171875 184.789062 193.1875 182.777344 193.1875 180.289062 C 193.1875 177.804688 191.171875 175.789062 188.6875 175.789062 " fill-opacity="1" fill-rule="nonzero"/></g><g fill="#004aad" fill-opacity="1"><g transform="translate(58.406251, 229.578969)"><g><path d="M 18.421875 -18.6875 C 18.773438 -18.664062 19.078125 -18.535156 19.328125 -18.296875 C 19.578125 -18.054688 19.703125 -17.757812 19.703125 -17.40625 L 19.703125 -1.28125 C 19.703125 -0.925781 19.582031 -0.625 19.34375 -0.375 C 19.101562 -0.125 18.785156 0 18.390625 0 C 18.003906 0 17.6875 -0.117188 17.4375 -0.359375 C 17.1875 -0.597656 17.0625 -0.90625 17.0625 -1.28125 L 17.0625 -13.625 L 11.890625 -5.78125 C 11.765625 -5.625 11.609375 -5.488281 11.421875 -5.375 C 11.234375 -5.269531 11.039062 -5.226562 10.84375 -5.25 C 10.664062 -5.226562 10.484375 -5.269531 10.296875 -5.375 C 10.109375 -5.488281 9.957031 -5.625 9.84375 -5.78125 L 4.640625 -13.859375 L 4.640625 -1.28125 C 4.640625 -0.90625 4.523438 -0.597656 4.296875 -0.359375 C 4.078125 -0.117188 3.78125 0 3.40625 0 C 3.050781 0 2.765625 -0.117188 2.546875 -0.359375 C 2.328125 -0.597656 2.21875 -0.90625 2.21875 -1.28125 L 2.21875 -17.40625 C 2.21875 -17.738281 2.335938 -18.035156 2.578125 -18.296875 C 2.828125 -18.554688 3.140625 -18.6875 3.515625 -18.6875 C 3.734375 -18.6875 3.941406 -18.628906 4.140625 -18.515625 C 4.347656 -18.410156 4.515625 -18.269531 4.640625 -18.09375 L 10.953125 -8.53125 L 17.359375 -18.09375 C 17.640625 -18.488281 17.992188 -18.6875 18.421875 -18.6875 Z M 18.421875 -18.6875 "/></g></g></g><g fill="#004aad" fill-opacity="1"><g transform="translate(80.320838, 229.578969)"><g><path d="M 16.546875 -1.65625 C 16.609375 -1.488281 16.640625 -1.316406 16.640625 -1.140625 C 16.640625 -0.785156 16.515625 -0.492188 16.265625 -0.265625 C 16.023438 -0.0351562 15.75 0.078125 15.4375 0.078125 C 15.1875 0.078125 14.957031 0.00390625 14.75 -0.140625 C 14.550781 -0.296875 14.390625 -0.503906 14.265625 -0.765625 L 12.609375 -4.6875 L 4.375 -4.6875 L 2.75 -0.75 C 2.65625 -0.476562 2.503906 -0.269531 2.296875 -0.125 C 2.097656 0.0078125 1.875 0.078125 1.625 0.078125 C 1.25 0.078125 0.960938 -0.015625 0.765625 -0.203125 C 0.578125 -0.398438 0.484375 -0.671875 0.484375 -1.015625 C 0.484375 -1.085938 0.5 -1.226562 0.53125 -1.4375 L 7.328125 -17.90625 C 7.453125 -18.195312 7.625 -18.414062 7.84375 -18.5625 C 8.070312 -18.71875 8.328125 -18.773438 8.609375 -18.734375 C 8.878906 -18.734375 9.117188 -18.660156 9.328125 -18.515625 C 9.546875 -18.378906 9.695312 -18.175781 9.78125 -17.90625 Z M 5.390625 -7.125 L 11.59375 -7.125 L 8.484375 -14.578125 Z M 5.390625 -7.125 "/></g></g></g><g fill="#004aad" fill-opacity="1"><g transform="translate(97.43661, 229.578969)"><g><path d="M 14.3125 -18.65625 C 14.6875 -18.65625 14.992188 -18.546875 15.234375 -18.328125 C 15.472656 -18.109375 15.59375 -17.8125 15.59375 -17.4375 C 15.59375 -17.0625 15.472656 -16.765625 15.234375 -16.546875 C 14.992188 -16.335938 14.6875 -16.234375 14.3125 -16.234375 L 9.5625 -16.234375 L 9.5625 -1.28125 C 9.5625 -0.925781 9.429688 -0.625 9.171875 -0.375 C 8.921875 -0.125 8.597656 0 8.203125 0 C 7.816406 0 7.492188 -0.125 7.234375 -0.375 C 6.972656 -0.625 6.84375 -0.925781 6.84375 -1.28125 L 6.84375 -16.234375 L 2.125 -16.234375 C 1.757812 -16.234375 1.457031 -16.34375 1.21875 -16.5625 C 0.976562 -16.789062 0.859375 -17.085938 0.859375 -17.453125 C 0.859375 -17.816406 0.976562 -18.109375 1.21875 -18.328125 C 1.457031 -18.546875 1.757812 -18.65625 2.125 -18.65625 Z M 14.3125 -18.65625 "/></g></g></g><g fill="#004aad" fill-opacity="1"><g transform="translate(113.885877, 229.578969)"><g><path d="M 14.3125 -18.65625 C 14.6875 -18.65625 14.992188 -18.546875 15.234375 -18.328125 C 15.472656 -18.109375 15.59375 -17.8125 15.59375 -17.4375 C 15.59375 -17.0625 15.472656 -16.765625 15.234375 -16.546875 C 14.992188 -16.335938 14.6875 -16.234375 14.3125 -16.234375 L 9.5625 -16.234375 L 9.5625 -1.28125 C 9.5625 -0.925781 9.429688 -0.625 9.171875 -0.375 C 8.921875 -0.125 8.597656 0 8.203125 0 C 7.816406 0 7.492188 -0.125 7.234375 -0.375 C 6.972656 -0.625 6.84375 -0.925781 6.84375 -1.28125 L 6.84375 -16.234375 L 2.125 -16.234375 C 1.757812 -16.234375 1.457031 -16.34375 1.21875 -16.5625 C 0.976562 -16.789062 0.859375 -17.085938 0.859375 -17.453125 C 0.859375 -17.816406 0.976562 -18.109375 1.21875 -18.328125 C 1.457031 -18.546875 1.757812 -18.65625 2.125 -18.65625 Z M 14.3125 -18.65625 "/></g></g></g><g fill="#004aad" fill-opacity="1"><g transform="translate(130.335144, 229.578969)"><g/></g></g><g fill="#004aad" fill-opacity="1"><g transform="translate(137.719982, 229.578969)"><g><path d="M 12.90625 -10.1875 C 13.882812 -9.84375 14.6875 -9.285156 15.3125 -8.515625 C 15.945312 -7.742188 16.265625 -6.734375 16.265625 -5.484375 C 16.265625 -3.515625 15.691406 -2.109375 14.546875 -1.265625 C 13.398438 -0.421875 12 0 10.34375 0 L 3.484375 0 C 3.128906 0 2.828125 -0.125 2.578125 -0.375 C 2.335938 -0.625 2.21875 -0.925781 2.21875 -1.28125 L 2.21875 -17.375 C 2.21875 -17.726562 2.335938 -18.03125 2.578125 -18.28125 C 2.828125 -18.53125 3.128906 -18.65625 3.484375 -18.65625 L 10.34375 -18.65625 C 11.957031 -18.65625 13.1875 -18.253906 14.03125 -17.453125 C 14.875 -16.660156 15.296875 -15.507812 15.296875 -14 C 15.296875 -13.144531 15.09375 -12.382812 14.6875 -11.71875 C 14.28125 -11.050781 13.6875 -10.539062 12.90625 -10.1875 Z M 12.5625 -13.59375 C 12.5625 -14.425781 12.332031 -15.0625 11.875 -15.5 C 11.425781 -15.9375 10.789062 -16.15625 9.96875 -16.15625 L 4.9375 -16.15625 L 4.9375 -10.953125 L 10.015625 -10.953125 C 10.742188 -10.972656 11.347656 -11.207031 11.828125 -11.65625 C 12.316406 -12.113281 12.5625 -12.757812 12.5625 -13.59375 Z M 10.3125 -2.453125 C 11.289062 -2.453125 12.070312 -2.703125 12.65625 -3.203125 C 13.25 -3.710938 13.546875 -4.472656 13.546875 -5.484375 C 13.546875 -7.460938 12.425781 -8.453125 10.1875 -8.453125 L 4.9375 -8.453125 L 4.9375 -2.453125 Z M 10.3125 -2.453125 "/></g></g></g><g fill="#004aad" fill-opacity="1"><g transform="translate(155.129019, 229.578969)"><g><path d="M 19.171875 -9.328125 C 19.171875 -7.535156 18.78125 -5.910156 18 -4.453125 C 17.226562 -2.992188 16.15625 -1.84375 14.78125 -1 C 13.414062 -0.15625 11.875 0.265625 10.15625 0.265625 C 8.4375 0.265625 6.890625 -0.15625 5.515625 -1 C 4.148438 -1.84375 3.078125 -2.992188 2.296875 -4.453125 C 1.523438 -5.910156 1.140625 -7.535156 1.140625 -9.328125 C 1.140625 -11.117188 1.523438 -12.742188 2.296875 -14.203125 C 3.078125 -15.660156 4.148438 -16.8125 5.515625 -17.65625 C 6.890625 -18.5 8.4375 -18.921875 10.15625 -18.921875 C 11.875 -18.921875 13.414062 -18.5 14.78125 -17.65625 C 16.15625 -16.8125 17.226562 -15.660156 18 -14.203125 C 18.78125 -12.742188 19.171875 -11.117188 19.171875 -9.328125 Z M 16.421875 -9.328125 C 16.421875 -10.660156 16.15625 -11.863281 15.625 -12.9375 C 15.09375 -14.007812 14.347656 -14.851562 13.390625 -15.46875 C 12.441406 -16.082031 11.363281 -16.390625 10.15625 -16.390625 C 8.945312 -16.390625 7.863281 -16.085938 6.90625 -15.484375 C 5.957031 -14.878906 5.21875 -14.039062 4.6875 -12.96875 C 4.15625 -11.894531 3.890625 -10.679688 3.890625 -9.328125 C 3.890625 -7.992188 4.15625 -6.789062 4.6875 -5.71875 C 5.21875 -4.644531 5.957031 -3.800781 6.90625 -3.1875 C 7.863281 -2.570312 8.945312 -2.265625 10.15625 -2.265625 C 11.363281 -2.265625 12.441406 -2.570312 13.390625 -3.1875 C 14.347656 -3.800781 15.09375 -4.644531 15.625 -5.71875 C 16.15625 -6.789062 16.421875 -7.992188 16.421875 -9.328125 Z M 16.421875 -9.328125 "/></g></g></g><g fill="#004aad" fill-opacity="1"><g transform="translate(175.443997, 229.578969)"><g><path d="M 16.421875 -2.125 C 16.597656 -2.007812 16.738281 -1.859375 16.84375 -1.671875 C 16.945312 -1.484375 17 -1.289062 17 -1.09375 C 17 -0.71875 16.878906 -0.441406 16.640625 -0.265625 C 16.398438 -0.0859375 16.113281 0 15.78125 0 C 15.445312 0 15.160156 -0.0703125 14.921875 -0.21875 C 14.390625 -0.519531 13.953125 -1.003906 13.609375 -1.671875 C 13.273438 -2.347656 13.109375 -3.347656 13.109375 -4.671875 C 13.109375 -5.554688 12.84375 -6.210938 12.3125 -6.640625 C 11.78125 -7.066406 11.085938 -7.28125 10.234375 -7.28125 L 4.84375 -7.28125 L 4.84375 -1.28125 C 4.84375 -0.90625 4.738281 -0.597656 4.53125 -0.359375 C 4.320312 -0.117188 4.046875 0 3.703125 0 C 3.296875 0 2.945312 -0.125 2.65625 -0.375 C 2.363281 -0.625 2.21875 -0.925781 2.21875 -1.28125 L 2.21875 -17.375 C 2.21875 -17.726562 2.335938 -18.03125 2.578125 -18.28125 C 2.828125 -18.53125 3.128906 -18.65625 3.484375 -18.65625 L 10.984375 -18.65625 C 11.941406 -18.65625 12.820312 -18.421875 13.625 -17.953125 C 14.425781 -17.484375 15.066406 -16.832031 15.546875 -16 C 16.023438 -15.175781 16.265625 -14.25 16.265625 -13.21875 C 16.265625 -12.226562 15.992188 -11.300781 15.453125 -10.4375 C 14.921875 -9.570312 14.238281 -8.925781 13.40625 -8.5 C 14.0625 -8.164062 14.582031 -7.695312 14.96875 -7.09375 C 15.351562 -6.488281 15.5625 -5.785156 15.59375 -4.984375 C 15.664062 -3.972656 15.742188 -3.285156 15.828125 -2.921875 C 15.921875 -2.554688 16.117188 -2.289062 16.421875 -2.125 Z M 10.921875 -9.484375 C 11.367188 -9.523438 11.789062 -9.703125 12.1875 -10.015625 C 12.59375 -10.335938 12.921875 -10.769531 13.171875 -11.3125 C 13.421875 -11.851562 13.546875 -12.460938 13.546875 -13.140625 C 13.546875 -13.992188 13.28125 -14.71875 12.75 -15.3125 C 12.226562 -15.90625 11.59375 -16.203125 10.84375 -16.203125 L 4.84375 -16.203125 L 4.84375 -9.484375 Z M 10.921875 -9.484375 "/></g></g></g><g fill="#004aad" fill-opacity="1"><g transform="translate(193.572856, 229.578969)"><g><path d="M 7.859375 0.265625 C 6.566406 0.265625 5.421875 0.0820312 4.421875 -0.28125 C 3.429688 -0.644531 2.484375 -1.234375 1.578125 -2.046875 C 1.203125 -2.367188 1.015625 -2.734375 1.015625 -3.140625 C 1.015625 -3.460938 1.140625 -3.75 1.390625 -4 C 1.640625 -4.257812 1.929688 -4.390625 2.265625 -4.390625 C 2.566406 -4.390625 2.820312 -4.296875 3.03125 -4.109375 C 3.75 -3.453125 4.484375 -2.96875 5.234375 -2.65625 C 5.992188 -2.34375 6.851562 -2.1875 7.8125 -2.1875 C 8.925781 -2.1875 9.867188 -2.441406 10.640625 -2.953125 C 11.421875 -3.472656 11.8125 -4.125 11.8125 -4.90625 C 11.789062 -5.832031 11.398438 -6.546875 10.640625 -7.046875 C 9.890625 -7.554688 8.742188 -7.976562 7.203125 -8.3125 C 5.367188 -8.6875 3.957031 -9.300781 2.96875 -10.15625 C 1.988281 -11.007812 1.5 -12.191406 1.5 -13.703125 C 1.5 -14.753906 1.769531 -15.671875 2.3125 -16.453125 C 2.863281 -17.242188 3.628906 -17.851562 4.609375 -18.28125 C 5.585938 -18.707031 6.691406 -18.921875 7.921875 -18.921875 C 9.015625 -18.921875 10.050781 -18.742188 11.03125 -18.390625 C 12.007812 -18.035156 12.800781 -17.566406 13.40625 -16.984375 C 13.8125 -16.628906 14.015625 -16.242188 14.015625 -15.828125 C 14.015625 -15.515625 13.894531 -15.234375 13.65625 -14.984375 C 13.414062 -14.734375 13.128906 -14.609375 12.796875 -14.609375 C 12.546875 -14.609375 12.34375 -14.679688 12.1875 -14.828125 C 11.71875 -15.285156 11.070312 -15.671875 10.25 -15.984375 C 9.4375 -16.304688 8.660156 -16.46875 7.921875 -16.46875 C 6.722656 -16.46875 5.773438 -16.222656 5.078125 -15.734375 C 4.378906 -15.242188 4.03125 -14.601562 4.03125 -13.8125 C 4.03125 -12.9375 4.378906 -12.265625 5.078125 -11.796875 C 5.773438 -11.335938 6.816406 -10.953125 8.203125 -10.640625 C 9.597656 -10.335938 10.734375 -9.976562 11.609375 -9.5625 C 12.484375 -9.15625 13.160156 -8.585938 13.640625 -7.859375 C 14.128906 -7.128906 14.375 -6.179688 14.375 -5.015625 C 14.375 -3.984375 14.082031 -3.066406 13.5 -2.265625 C 12.925781 -1.460938 12.140625 -0.835938 11.140625 -0.390625 C 10.148438 0.046875 9.054688 0.265625 7.859375 0.265625 Z M 7.859375 0.265625 "/></g></g></g><g fill="#004aad" fill-opacity="1"><g transform="translate(209.089029, 229.578969)"><g><path d="M 15.515625 -17.5625 C 15.941406 -17.332031 16.15625 -16.976562 16.15625 -16.5 C 16.15625 -16.175781 16.046875 -15.882812 15.828125 -15.625 C 15.617188 -15.332031 15.328125 -15.1875 14.953125 -15.1875 C 14.703125 -15.1875 14.460938 -15.25 14.234375 -15.375 C 13.128906 -16 11.9375 -16.3125 10.65625 -16.3125 C 9.320312 -16.3125 8.144531 -16.015625 7.125 -15.421875 C 6.101562 -14.835938 5.304688 -14.015625 4.734375 -12.953125 C 4.171875 -11.898438 3.890625 -10.691406 3.890625 -9.328125 C 3.890625 -7.859375 4.179688 -6.585938 4.765625 -5.515625 C 5.359375 -4.453125 6.171875 -3.640625 7.203125 -3.078125 C 8.234375 -2.515625 9.382812 -2.234375 10.65625 -2.234375 C 11.976562 -2.234375 13.171875 -2.554688 14.234375 -3.203125 C 14.441406 -3.304688 14.671875 -3.359375 14.921875 -3.359375 C 15.316406 -3.359375 15.628906 -3.207031 15.859375 -2.90625 C 16.078125 -2.632812 16.1875 -2.347656 16.1875 -2.046875 C 16.1875 -1.835938 16.125 -1.640625 16 -1.453125 C 15.882812 -1.265625 15.734375 -1.117188 15.546875 -1.015625 C 14.847656 -0.617188 14.066406 -0.304688 13.203125 -0.078125 C 12.347656 0.148438 11.5 0.265625 10.65625 0.265625 C 8.9375 0.265625 7.351562 -0.113281 5.90625 -0.875 C 4.457031 -1.644531 3.300781 -2.753906 2.4375 -4.203125 C 1.570312 -5.660156 1.140625 -7.367188 1.140625 -9.328125 C 1.140625 -11.117188 1.550781 -12.738281 2.375 -14.1875 C 3.207031 -15.632812 4.347656 -16.769531 5.796875 -17.59375 C 7.242188 -18.425781 8.863281 -18.84375 10.65625 -18.84375 C 12.382812 -18.84375 14.003906 -18.414062 15.515625 -17.5625 Z M 15.515625 -17.5625 "/></g></g></g><g fill="#004aad" fill-opacity="1"><g transform="translate(226.098164, 229.578969)"><g><path d="M 15.640625 -18.65625 C 16.035156 -18.65625 16.359375 -18.535156 16.609375 -18.296875 C 16.859375 -18.054688 16.984375 -17.75 16.984375 -17.375 L 16.984375 -1.3125 C 16.960938 -0.9375 16.828125 -0.625 16.578125 -0.375 C 16.328125 -0.125 16.007812 0 15.625 0 C 15.269531 0 14.960938 -0.125 14.703125 -0.375 C 14.441406 -0.625 14.3125 -0.9375 14.3125 -1.3125 L 14.3125 -8.203125 L 4.84375 -8.203125 L 4.84375 -1.3125 C 4.84375 -0.9375 4.707031 -0.625 4.4375 -0.375 C 4.175781 -0.125 3.867188 0 3.515625 0 C 3.128906 0 2.816406 -0.125 2.578125 -0.375 C 2.335938 -0.625 2.21875 -0.9375 2.21875 -1.3125 L 2.21875 -17.375 C 2.21875 -17.726562 2.335938 -18.03125 2.578125 -18.28125 C 2.828125 -18.53125 3.148438 -18.65625 3.546875 -18.65625 C 3.898438 -18.65625 4.203125 -18.53125 4.453125 -18.28125 C 4.710938 -18.03125 4.84375 -17.726562 4.84375 -17.375 L 4.84375 -10.65625 L 14.3125 -10.65625 L 14.3125 -17.375 C 14.3125 -17.726562 14.441406 -18.03125 14.703125 -18.28125 C 14.972656 -18.53125 15.285156 -18.65625 15.640625 -18.65625 Z M 15.640625 -18.65625 "/></g></g></g><g fill="#004aad" fill-opacity="1"><g transform="translate(245.266765, 229.578969)"><g><path d="M 16.15625 -18.65625 C 16.488281 -18.65625 16.757812 -18.546875 16.96875 -18.328125 C 17.1875 -18.109375 17.296875 -17.828125 17.296875 -17.484375 L 17.296875 -1.3125 C 17.296875 -0.9375 17.175781 -0.625 16.9375 -0.375 C 16.695312 -0.125 16.390625 0 16.015625 0 C 15.828125 0 15.640625 -0.03125 15.453125 -0.09375 C 15.265625 -0.15625 15.113281 -0.25 15 -0.375 L 4.53125 -14.015625 L 4.53125 -1.171875 C 4.53125 -0.835938 4.414062 -0.554688 4.1875 -0.328125 C 3.96875 -0.109375 3.691406 0 3.359375 0 C 3.023438 0 2.75 -0.109375 2.53125 -0.328125 C 2.320312 -0.554688 2.21875 -0.835938 2.21875 -1.171875 L 2.21875 -17.375 C 2.21875 -17.75 2.335938 -18.054688 2.578125 -18.296875 C 2.816406 -18.535156 3.113281 -18.65625 3.46875 -18.65625 C 3.675781 -18.65625 3.878906 -18.613281 4.078125 -18.53125 C 4.273438 -18.457031 4.425781 -18.347656 4.53125 -18.203125 L 14.984375 -4.53125 L 14.984375 -17.484375 C 14.984375 -17.828125 15.09375 -18.109375 15.3125 -18.328125 C 15.53125 -18.546875 15.8125 -18.65625 16.15625 -18.65625 Z M 16.15625 -18.65625 "/></g></g></g><g fill="#004aad" fill-opacity="1"><g transform="translate(264.781938, 229.578969)"><g><path d="M 16.546875 -1.65625 C 16.609375 -1.488281 16.640625 -1.316406 16.640625 -1.140625 C 16.640625 -0.785156 16.515625 -0.492188 16.265625 -0.265625 C 16.023438 -0.0351562 15.75 0.078125 15.4375 0.078125 C 15.1875 0.078125 14.957031 0.00390625 14.75 -0.140625 C 14.550781 -0.296875 14.390625 -0.503906 14.265625 -0.765625 L 12.609375 -4.6875 L 4.375 -4.6875 L 2.75 -0.75 C 2.65625 -0.476562 2.503906 -0.269531 2.296875 -0.125 C 2.097656 0.0078125 1.875 0.078125 1.625 0.078125 C 1.25 0.078125 0.960938 -0.015625 0.765625 -0.203125 C 0.578125 -0.398438 0.484375 -0.671875 0.484375 -1.015625 C 0.484375 -1.085938 0.5 -1.226562 0.53125 -1.4375 L 7.328125 -17.90625 C 7.453125 -18.195312 7.625 -18.414062 7.84375 -18.5625 C 8.070312 -18.71875 8.328125 -18.773438 8.609375 -18.734375 C 8.878906 -18.734375 9.117188 -18.660156 9.328125 -18.515625 C 9.546875 -18.378906 9.695312 -18.175781 9.78125 -17.90625 Z M 5.390625 -7.125 L 11.59375 -7.125 L 8.484375 -14.578125 Z M 5.390625 -7.125 "/></g></g></g><g fill="#004aad" fill-opacity="1"><g transform="translate(281.897721, 229.578969)"><g><path d="M 15.515625 -17.5625 C 15.941406 -17.332031 16.15625 -16.976562 16.15625 -16.5 C 16.15625 -16.175781 16.046875 -15.882812 15.828125 -15.625 C 15.617188 -15.332031 15.328125 -15.1875 14.953125 -15.1875 C 14.703125 -15.1875 14.460938 -15.25 14.234375 -15.375 C 13.128906 -16 11.9375 -16.3125 10.65625 -16.3125 C 9.320312 -16.3125 8.144531 -16.015625 7.125 -15.421875 C 6.101562 -14.835938 5.304688 -14.015625 4.734375 -12.953125 C 4.171875 -11.898438 3.890625 -10.691406 3.890625 -9.328125 C 3.890625 -7.859375 4.179688 -6.585938 4.765625 -5.515625 C 5.359375 -4.453125 6.171875 -3.640625 7.203125 -3.078125 C 8.234375 -2.515625 9.382812 -2.234375 10.65625 -2.234375 C 11.976562 -2.234375 13.171875 -2.554688 14.234375 -3.203125 C 14.441406 -3.304688 14.671875 -3.359375 14.921875 -3.359375 C 15.316406 -3.359375 15.628906 -3.207031 15.859375 -2.90625 C 16.078125 -2.632812 16.1875 -2.347656 16.1875 -2.046875 C 16.1875 -1.835938 16.125 -1.640625 16 -1.453125 C 15.882812 -1.265625 15.734375 -1.117188 15.546875 -1.015625 C 14.847656 -0.617188 14.066406 -0.304688 13.203125 -0.078125 C 12.347656 0.148438 11.5 0.265625 10.65625 0.265625 C 8.9375 0.265625 7.351562 -0.113281 5.90625 -0.875 C 4.457031 -1.644531 3.300781 -2.753906 2.4375 -4.203125 C 1.570312 -5.660156 1.140625 -7.367188 1.140625 -9.328125 C 1.140625 -11.117188 1.550781 -12.738281 2.375 -14.1875 C 3.207031 -15.632812 4.347656 -16.769531 5.796875 -17.59375 C 7.242188 -18.425781 8.863281 -18.84375 10.65625 -18.84375 C 12.382812 -18.84375 14.003906 -18.414062 15.515625 -17.5625 Z M 15.515625 -17.5625 "/></g></g></g><g fill="#004aad" fill-opacity="1"><g transform="translate(298.906845, 229.578969)"><g><path d="M 16.390625 -2.15625 C 16.585938 -1.90625 16.6875 -1.613281 16.6875 -1.28125 C 16.6875 -0.882812 16.539062 -0.5625 16.25 -0.3125 C 15.957031 -0.0703125 15.625 0.046875 15.25 0.046875 C 14.894531 0.046875 14.582031 -0.109375 14.3125 -0.421875 L 7.84375 -8.765625 L 4.84375 -5.9375 L 4.84375 -1.3125 C 4.84375 -0.9375 4.71875 -0.625 4.46875 -0.375 C 4.226562 -0.125 3.910156 0 3.515625 0 C 3.128906 0 2.816406 -0.125 2.578125 -0.375 C 2.335938 -0.625 2.21875 -0.9375 2.21875 -1.3125 L 2.21875 -17.375 C 2.21875 -17.726562 2.335938 -18.03125 2.578125 -18.28125 C 2.828125 -18.53125 3.148438 -18.65625 3.546875 -18.65625 C 3.929688 -18.65625 4.242188 -18.535156 4.484375 -18.296875 C 4.722656 -18.054688 4.84375 -17.75 4.84375 -17.375 L 4.84375 -9.09375 L 14.3125 -18.265625 C 14.65625 -18.566406 14.992188 -18.71875 15.328125 -18.71875 C 15.648438 -18.71875 15.925781 -18.582031 16.15625 -18.3125 C 16.382812 -18.039062 16.5 -17.753906 16.5 -17.453125 C 16.5 -17.191406 16.375 -16.921875 16.125 -16.640625 L 9.8125 -10.65625 Z M 16.390625 -2.15625 "/></g></g></g><g fill="#5ce1e6" fill-opacity="1"><g transform="translate(102.046703, 256.21217)"><g><path d="M 3.808594 0.144531 C 5.714844 0.144531 6.816406 -0.921875 6.816406 -2.3125 C 6.816406 -3.917969 5.652344 -4.480469 3.773438 -4.851562 C 2.277344 -5.136719 1.378906 -5.414062 1.378906 -6.550781 C 1.378906 -7.472656 2.214844 -8.023438 3.425781 -8.023438 C 4.851562 -8.023438 5.59375 -7.304688 5.714844 -6.191406 L 6.539062 -6.191406 C 6.445312 -7.796875 5.199219 -8.707031 3.425781 -8.707031 C 1.796875 -8.707031 0.550781 -8 0.550781 -6.515625 C 0.550781 -5.066406 1.605469 -4.503906 3.210938 -4.191406 C 4.996094 -3.855469 5.988281 -3.519531 5.988281 -2.265625 C 5.976562 -1.328125 5.257812 -0.550781 3.808594 -0.550781 C 2.226562 -0.550781 1.148438 -1.304688 1.066406 -2.765625 L 0.238281 -2.765625 C 0.324219 -0.828125 1.84375 0.144531 3.808594 0.144531 Z M 3.808594 0.144531 "/></g></g></g><g fill="#5ce1e6" fill-opacity="1"><g transform="translate(111.173847, 256.21217)"><g><path d="M 4.40625 0.144531 C 6.851562 0.144531 8.421875 -1.710938 8.421875 -4.289062 C 8.421875 -6.863281 6.851562 -8.707031 4.40625 -8.707031 C 1.964844 -8.707031 0.394531 -6.863281 0.394531 -4.289062 C 0.394531 -1.710938 1.964844 0.144531 4.40625 0.144531 Z M 4.40625 -0.550781 C 2.503906 -0.550781 1.222656 -2.085938 1.222656 -4.289062 C 1.222656 -6.492188 2.503906 -8.023438 4.40625 -8.023438 C 6.3125 -8.023438 7.59375 -6.492188 7.59375 -4.289062 C 7.59375 -2.085938 6.3125 -0.550781 4.40625 -0.550781 Z M 4.40625 -0.550781 "/></g></g></g><g fill="#5ce1e6" fill-opacity="1"><g transform="translate(121.917834, 256.21217)"><g><path d="M 0.730469 0 L 1.558594 0 L 1.558594 -4.011719 L 5.726562 -4.011719 L 5.726562 -4.707031 L 1.558594 -4.707031 L 1.558594 -7.871094 L 6.457031 -7.871094 L 6.457031 -8.5625 L 0.730469 -8.5625 Z M 0.730469 0 "/></g></g></g><g fill="#5ce1e6" fill-opacity="1"><g transform="translate(130.601851, 256.21217)"><g><path d="M 3.148438 0 L 3.976562 0 L 3.976562 -7.871094 L 6.886719 -7.871094 L 6.886719 -8.5625 L 0.226562 -8.5625 L 0.226562 -7.871094 L 3.148438 -7.871094 Z M 3.148438 0 "/></g></g></g><g fill="#5ce1e6" fill-opacity="1"><g transform="translate(139.645166, 256.21217)"><g><path d="M 2.371094 0 L 3.246094 0 L 5.292969 -7.292969 L 5.316406 -7.292969 L 7.378906 0 L 8.242188 0 L 10.492188 -8.5625 L 9.664062 -8.5625 L 7.808594 -1.160156 L 7.785156 -1.160156 L 5.738281 -8.5625 L 4.875 -8.5625 L 2.828125 -1.160156 L 2.816406 -1.160156 L 0.957031 -8.5625 L 0.121094 -8.5625 Z M 2.371094 0 "/></g></g></g><g fill="#5ce1e6" fill-opacity="1"><g transform="translate(152.185647, 256.21217)"><g><path d="M 0.0703125 0 L 0.898438 0 L 1.878906 -2.636719 L 5.628906 -2.636719 L 6.613281 0 L 7.4375 0 L 4.191406 -8.5625 L 3.304688 -8.5625 Z M 2.097656 -3.292969 L 3.738281 -7.738281 L 3.761719 -7.738281 L 5.414062 -3.292969 Z M 2.097656 -3.292969 "/></g></g></g><g fill="#5ce1e6" fill-opacity="1"><g transform="translate(161.624184, 256.21217)"><g><path d="M 0.730469 0 L 1.558594 0 L 1.558594 -3.582031 L 4.167969 -3.582031 C 6.46875 -3.582031 5.785156 -0.359375 6.226562 0 L 7.101562 0 L 7.101562 -0.0820312 C 6.613281 -0.226562 7.257812 -3.652344 5.101562 -3.941406 L 5.101562 -3.964844 C 6.242188 -4.179688 6.957031 -4.933594 6.957031 -6.144531 C 6.957031 -7.785156 5.894531 -8.5625 4.253906 -8.5625 L 0.730469 -8.5625 Z M 1.558594 -4.265625 L 1.558594 -7.871094 L 3.976562 -7.871094 C 5.378906 -7.871094 6.132812 -7.34375 6.132812 -6.074219 C 6.132812 -4.863281 5.246094 -4.265625 3.976562 -4.265625 Z M 1.558594 -4.265625 "/></g></g></g><g fill="#5ce1e6" fill-opacity="1"><g transform="translate(171.002834, 256.21217)"><g><path d="M 0.730469 0 L 6.683594 0 L 6.683594 -0.695312 L 1.558594 -0.695312 L 1.558594 -4.167969 L 6.109375 -4.167969 L 6.109375 -4.863281 L 1.558594 -4.863281 L 1.558594 -7.871094 L 6.574219 -7.871094 L 6.574219 -8.5625 L 0.730469 -8.5625 Z M 0.730469 0 "/></g></g></g><g fill="#5ce1e6" fill-opacity="1"><g transform="translate(180.046149, 256.21217)"><g/></g></g><g fill="#5ce1e6" fill-opacity="1"><g transform="translate(184.550326, 256.21217)"><g><path d="M 0.730469 0 L 3.953125 0 C 6.40625 0 7.582031 -1.761719 7.582031 -4.253906 C 7.582031 -6.730469 6.433594 -8.5625 3.976562 -8.5625 L 0.730469 -8.5625 Z M 1.546875 -0.695312 L 1.546875 -7.871094 L 3.917969 -7.871094 C 5.808594 -7.871094 6.753906 -6.457031 6.753906 -4.253906 C 6.753906 -2.046875 5.75 -0.695312 3.855469 -0.695312 Z M 1.546875 -0.695312 "/></g></g></g><g fill="#5ce1e6" fill-opacity="1"><g transform="translate(194.455953, 256.21217)"><g><path d="M 0.730469 0 L 6.683594 0 L 6.683594 -0.695312 L 1.558594 -0.695312 L 1.558594 -4.167969 L 6.109375 -4.167969 L 6.109375 -4.863281 L 1.558594 -4.863281 L 1.558594 -7.871094 L 6.574219 -7.871094 L 6.574219 -8.5625 L 0.730469 -8.5625 Z M 0.730469 0 "/></g></g></g><g fill="#5ce1e6" fill-opacity="1"><g transform="translate(203.499269, 256.21217)"><g><path d="M 3.234375 0 L 4.023438 0 L 7.1875 -8.5625 L 6.3125 -8.5625 L 3.640625 -1.148438 L 3.617188 -1.148438 L 0.945312 -8.5625 L 0.0703125 -8.5625 Z M 3.234375 0 "/></g></g></g><g fill="#5ce1e6" fill-opacity="1"><g transform="translate(212.686299, 256.21217)"><g><path d="M 0.730469 0 L 6.683594 0 L 6.683594 -0.695312 L 1.558594 -0.695312 L 1.558594 -4.167969 L 6.109375 -4.167969 L 6.109375 -4.863281 L 1.558594 -4.863281 L 1.558594 -7.871094 L 6.574219 -7.871094 L 6.574219 -8.5625 L 0.730469 -8.5625 Z M 0.730469 0 "/></g></g></g><g fill="#5ce1e6" fill-opacity="1"><g transform="translate(221.729614, 256.21217)"><g><path d="M 0.730469 0 L 6.191406 0 L 6.191406 -0.695312 L 1.558594 -0.695312 L 1.558594 -8.5625 L 0.730469 -8.5625 Z M 0.730469 0 "/></g></g></g><g fill="#5ce1e6" fill-opacity="1"><g transform="translate(230.114208, 256.21217)"><g><path d="M 4.40625 0.144531 C 6.851562 0.144531 8.421875 -1.710938 8.421875 -4.289062 C 8.421875 -6.863281 6.851562 -8.707031 4.40625 -8.707031 C 1.964844 -8.707031 0.394531 -6.863281 0.394531 -4.289062 C 0.394531 -1.710938 1.964844 0.144531 4.40625 0.144531 Z M 4.40625 -0.550781 C 2.503906 -0.550781 1.222656 -2.085938 1.222656 -4.289062 C 1.222656 -6.492188 2.503906 -8.023438 4.40625 -8.023438 C 6.3125 -8.023438 7.59375 -6.492188 7.59375 -4.289062 C 7.59375 -2.085938 6.3125 -0.550781 4.40625 -0.550781 Z M 4.40625 -0.550781 "/></g></g></g><g fill="#5ce1e6" fill-opacity="1"><g transform="translate(240.858195, 256.21217)"><g><path d="M 0.730469 0 L 1.558594 0 L 1.558594 -3.558594 L 4.046875 -3.558594 C 5.6875 -3.558594 6.804688 -4.265625 6.804688 -6.0625 C 6.804688 -7.855469 5.6875 -8.5625 4.046875 -8.5625 L 0.730469 -8.5625 Z M 1.558594 -4.238281 L 1.558594 -7.871094 L 4.023438 -7.871094 C 5.222656 -7.871094 5.976562 -7.332031 5.976562 -6.0625 C 5.976562 -4.777344 5.222656 -4.238281 4.023438 -4.238281 Z M 1.558594 -4.238281 "/></g></g></g><g fill="#5ce1e6" fill-opacity="1"><g transform="translate(249.841623, 256.21217)"><g><path d="M 0.730469 0 L 6.683594 0 L 6.683594 -0.695312 L 1.558594 -0.695312 L 1.558594 -4.167969 L 6.109375 -4.167969 L 6.109375 -4.863281 L 1.558594 -4.863281 L 1.558594 -7.871094 L 6.574219 -7.871094 L 6.574219 -8.5625 L 0.730469 -8.5625 Z M 0.730469 0 "/></g></g></g><g fill="#5ce1e6" fill-opacity="1"><g transform="translate(258.884939, 256.21217)"><g><path d="M 0.730469 0 L 1.558594 0 L 1.558594 -3.582031 L 4.167969 -3.582031 C 6.46875 -3.582031 5.785156 -0.359375 6.226562 0 L 7.101562 0 L 7.101562 -0.0820312 C 6.613281 -0.226562 7.257812 -3.652344 5.101562 -3.941406 L 5.101562 -3.964844 C 6.242188 -4.179688 6.957031 -4.933594 6.957031 -6.144531 C 6.957031 -7.785156 5.894531 -8.5625 4.253906 -8.5625 L 0.730469 -8.5625 Z M 1.558594 -4.265625 L 1.558594 -7.871094 L 3.976562 -7.871094 C 5.378906 -7.871094 6.132812 -7.34375 6.132812 -6.074219 C 6.132812 -4.863281 5.246094 -4.265625 3.976562 -4.265625 Z M 1.558594 -4.265625 "/></g></g></g></svg>